<?xml version="1.0" encoding="UTF-8"?>
<svg xmlns="http://www.w3.org/2000/svg" xmlns:xlink="http://www.w3.org/1999/xlink" width="90px" height="89px" viewBox="0 0 90 89" version="1.1">
<g id="surface1">
<path style=" stroke:none;fill-rule:nonzero;fill:rgb(89.803922%,89.803922%,89.803922%);fill-opacity:1;" d="M 51.398438 53.898438 L 73.398438 53.898438 L 73.398438 0 L 16.601562 0 L 16.601562 53.898438 L 38.601562 53.898438 L 38.601562 47.601562 L 51.300781 47.601562 L 51.300781 53.898438 Z M 23 9.5 L 23 6.300781 L 67.199219 6.300781 L 67.199219 9.5 Z M 23 9.5 "/>
<path style=" stroke:none;fill-rule:nonzero;fill:rgb(89.803922%,89.803922%,89.803922%);fill-opacity:1;" d="M 3.5 72.398438 L 8.300781 72.398438 L 9.800781 76 L 11.398438 76 L 5.898438 63.398438 L 0.300781 76 L 1.898438 76 Z M 7.601562 71 L 4 71 L 5.898438 66.699219 Z M 7.601562 71 "/>
<path style=" stroke:none;fill-rule:nonzero;fill:rgb(89.803922%,89.803922%,89.803922%);fill-opacity:1;" d="M 21.5 70.800781 C 22.199219 70.5 22.601562 70.101562 23 69.601562 C 23.398438 69.101562 23.5 68.398438 23.5 67.699219 C 23.5 66.898438 23.398438 66.398438 23 65.800781 C 22.601562 65.300781 22.199219 64.898438 21.5 64.601562 C 20.800781 64.300781 20.199219 64.199219 19.398438 64.199219 L 16.199219 64.199219 L 16.199219 76.101562 L 17.699219 76.101562 L 17.699219 71.300781 L 19.199219 71.300781 L 22.5 76.101562 L 24.199219 76.101562 L 20.699219 71 C 21 71 21.199219 70.898438 21.5 70.800781 Z M 17.601562 65.300781 L 19.300781 65.300781 C 19.800781 65.300781 20.199219 65.398438 20.601562 65.601562 C 21 65.699219 21.300781 66 21.5 66.398438 C 21.800781 66.800781 21.800781 67.199219 21.800781 67.601562 C 21.800781 68 21.699219 68.5 21.5 68.800781 C 21.199219 69.199219 21 69.5 20.601562 69.601562 C 20.199219 69.699219 19.800781 69.898438 19.300781 69.898438 L 17.601562 69.898438 Z M 17.601562 65.300781 "/>
<path style=" stroke:none;fill-rule:nonzero;fill:rgb(89.803922%,89.803922%,89.803922%);fill-opacity:1;" d="M 32 71.199219 L 35.300781 76 L 37 76 L 33.5 71 C 33.800781 70.898438 34 70.898438 34.300781 70.699219 C 35 70.398438 35.398438 70 35.800781 69.5 C 36.199219 69 36.300781 68.300781 36.300781 67.601562 C 36.300781 66.800781 36.199219 66.300781 35.800781 65.699219 C 35.398438 65.199219 35 64.800781 34.300781 64.5 C 33.601562 64.199219 33 64.101562 32.199219 64.101562 L 29 64.101562 L 29 76 L 30.5 76 L 30.5 71.199219 Z M 32.398438 65.300781 C 32.898438 65.300781 33.300781 65.398438 33.699219 65.601562 C 34.101562 65.699219 34.398438 66 34.601562 66.398438 C 34.800781 66.800781 34.898438 67.199219 34.898438 67.601562 C 34.898438 68 34.800781 68.5 34.601562 68.800781 C 34.300781 69.199219 34.101562 69.5 33.699219 69.601562 C 33.300781 69.699219 32.898438 69.898438 32.398438 69.898438 L 30.699219 69.898438 L 30.699219 65.300781 Z M 32.398438 65.300781 "/>
<path style=" stroke:none;fill-rule:nonzero;fill:rgb(89.803922%,89.803922%,89.803922%);fill-opacity:1;" d="M 42.101562 64.101562 L 43.601562 64.101562 L 43.601562 76 L 42.101562 76 Z M 42.101562 64.101562 "/>
<path style=" stroke:none;fill-rule:nonzero;fill:rgb(89.803922%,89.803922%,89.803922%);fill-opacity:1;" d="M 59.601562 76 L 54.101562 63.398438 L 48.601562 76 L 50.199219 76 L 51.699219 72.398438 L 56.398438 72.398438 L 57.898438 76 Z M 55.800781 71 L 52.199219 71 L 54.101562 66.699219 Z M 55.800781 71 "/>
<path style=" stroke:none;fill-rule:nonzero;fill:rgb(89.803922%,89.803922%,89.803922%);fill-opacity:1;" d="M 69.398438 71.300781 L 73.398438 71.300781 C 73.300781 71.699219 73.101562 72.199219 72.898438 72.601562 C 72.601562 73 72.398438 73.398438 72.101562 73.699219 C 71.699219 74 71.300781 74.199219 70.898438 74.5 C 70.398438 74.601562 69.800781 74.800781 69.300781 74.800781 C 68.5 74.800781 67.699219 74.699219 67 74.300781 C 66.300781 73.898438 65.800781 73.398438 65.398438 72.699219 C 65 72 64.699219 71.199219 64.699219 70.300781 C 64.699219 69.398438 65 68.601562 65.398438 67.898438 C 65.800781 67.199219 66.300781 66.699219 67 66.300781 C 67.699219 65.898438 68.5 65.800781 69.300781 65.800781 C 70.199219 65.800781 71 65.898438 71.699219 66.300781 C 72.398438 66.699219 72.898438 67.101562 73.300781 67.800781 L 74.398438 66.898438 C 74 66.398438 73.601562 65.800781 73.199219 65.601562 C 72.699219 65.199219 72.101562 64.898438 71.5 64.800781 C 70.898438 64.699219 70.199219 64.5 69.5 64.5 C 68.699219 64.5 67.898438 64.601562 67.101562 64.898438 C 66.300781 65.199219 65.800781 65.601562 65.199219 66.199219 C 64.699219 66.699219 64.300781 67.398438 63.898438 68.199219 C 63.601562 69 63.5 69.800781 63.5 70.601562 C 63.5 71.398438 63.601562 72.300781 63.898438 73 C 64.199219 73.800781 64.601562 74.300781 65.199219 75 C 65.699219 75.5 66.398438 75.898438 67.101562 76.300781 C 67.898438 76.601562 68.699219 76.699219 69.5 76.699219 C 70.398438 76.699219 71.199219 76.601562 71.898438 76.199219 C 72.601562 75.800781 73.199219 75.398438 73.601562 74.898438 C 74.101562 74.398438 74.398438 73.699219 74.699219 72.898438 C 75 72.101562 75.101562 71.398438 75.101562 70.5 L 69.601562 70.5 L 69.601562 71.398438 L 69.398438 71.398438 Z M 69.398438 71.300781 "/>
<path style=" stroke:none;fill-rule:nonzero;fill:rgb(89.803922%,89.803922%,89.803922%);fill-opacity:1;" d="M 81.898438 72.398438 L 86.699219 72.398438 L 88.199219 76 L 89.800781 76 L 84.300781 63.398438 L 78.800781 76 L 80.398438 76 Z M 86 71 L 82.398438 71 L 84.300781 66.699219 Z M 86 71 "/>
</g>
</svg>
